HIERARCHY
ROOT hip
{
	OFFSET 0.000000 0.000000 0.000000 
	CHANNELS 6 Xposition Yposition Zposition Xrotation Zrotation Yrotation
	JOINT abdomen
	{
		OFFSET 0.000000 3.402643 0.000000 
		CHANNELS 3 Xrotation Zrotation Yrotation
		JOINT chest
		{
			OFFSET 0.000000 8.438565 -0.680529 
			CHANNELS 3 Xrotation Zrotation Yrotation
			JOINT neck
			{
				OFFSET 0.000000 10.207942 -0.272212 
				CHANNELS 3 Xrotation Zrotation Yrotation
				JOINT head
				{
					OFFSET 0.000000 3.130431 0.000000 
					CHANNELS 3 Xrotation Zrotation Yrotation
					End Site
					{
						OFFSET 0.000000 3.130435 0.000000 
					}
				}
			}
			JOINT lCollar
			{
				OFFSET 3.470700 6.669187 -0.816635 
				CHANNELS 3 Yrotation Zrotation Xrotation
				JOINT lShldr
				{
					OFFSET 3.198488 0.000000 0.000000 
					CHANNELS 3 Zrotation Yrotation Xrotation
					JOINT lForeArm
					{
						OFFSET 10.139888 0.000000 0.000000 
						CHANNELS 3 Yrotation Zrotation Xrotation
						JOINT lHand
						{
							OFFSET 8.370511 0.000000 0.000000 
							CHANNELS 3 Zrotation Yrotation Xrotation
							End Site
							{
								OFFSET 4.083176 0.000000 0.000000 
							}
						}
					}
				}
			}
			JOINT rCollar
			{
				OFFSET -3.470700 6.669187 -0.816635 
				CHANNELS 3 Yrotation Zrotation Xrotation
				JOINT rShldr
				{
					OFFSET -3.198488 0.000000 0.000000 
					CHANNELS 3 Zrotation Yrotation Xrotation
					JOINT rForeArm
					{
						OFFSET -10.139888 0.000000 0.000000 
						CHANNELS 3 Yrotation Zrotation Xrotation
						JOINT rHand
						{
							OFFSET -8.370511 0.000000 0.000000 
							CHANNELS 3 Zrotation Yrotation Xrotation
							End Site
							{
								OFFSET -4.083176 0.000000 0.000000 
							}
						}
					}
				}
			}
		}
	}
	JOINT lThigh
	{
		OFFSET 5.308129 -1.633274 1.361059 
		CHANNELS 3 Xrotation Zrotation Yrotation
		JOINT lShin
		{
			OFFSET -2.041588 -20.007561 0.000000 
			CHANNELS 3 Xrotation Zrotation Yrotation
			JOINT lFoot
			{
				OFFSET 0.000000 -19.190928 -1.224953 
				CHANNELS 3 Xrotation Yrotation Zrotation
				End Site
				{
					OFFSET 0.000000 -2.449906 4.627600 
				}
			}
		}
	}
	JOINT rThigh
	{
		OFFSET -5.308129 -1.633274 1.361059 
		CHANNELS 3 Xrotation Zrotation Yrotation
		JOINT rShin
		{
			OFFSET 2.041588 -20.007561 0.000000 
			CHANNELS 3 Xrotation Zrotation Yrotation
			JOINT rFoot
			{
				OFFSET 0.000000 -19.190928 -1.224953 
				CHANNELS 3 Xrotation Yrotation Zrotation
				End Site
				{
					OFFSET 0.000000 -2.449906 4.627600 
				}
			}
		}
	}
}
MOTION
Frames: 11
Frame Time: 0.033333
12.734659 36.855518 -3.215452 2.109375 1.757813 -36.210636 32.363281 -3.515625 5.849610 -12.675781 -8.671875 6.668449 -29.589844 10.156250 7.080078 16.767576 0.771484 9.941406 10.400391 14.169923 0.664063 -90.732422 -77.373047 6.552733 -65.644531 -3.535156 -50.664063 7.167968 7.158203 0.517578 -15.488280 -10.800781 0.411986 31.552742 107.158203 -5.996530 50.371094 0.976563 7.958818 -6.552734 -27.470701 2.036512 -58.569645 25.047092 -2.556172 55.797161 0.073799 -3.276618 2.455616 -14.705031 -6.525105 -46.012100 -34.596928 -1.613741 78.044403 -2.294595 3.572635 -15.355980 35.040951 16.254282 
13.384005 35.312180 -2.153514 1.933594 1.406250 -37.802734 34.970707 -5.820313 1.864244 -12.148438 -8.857422 3.855919 -31.894531 10.722656 9.863282 13.955078 2.353516 13.056551 6.562500 15.751953 0.712891 -107.197266 -75.341797 41.748367 -47.578129 -3.525390 -56.972656 4.375000 10.888672 0.509659 -16.132814 -11.582031 0.439453 -31.513670 97.460938 -64.775482 50.654297 1.875000 -6.357742 -3.417969 -34.277344 0.878906 -64.187683 27.694527 -0.366843 65.096832 0.590100 -3.579762 0.734983 -17.501070 -7.237145 -49.712769 -36.891762 0.952400 82.635986 -2.128934 3.531068 -16.450445 35.705902 17.086817 
13.976861 34.158653 -1.318444 2.978516 1.572266 -38.330074 37.880859 -7.177735 -1.552734 -11.093750 -8.505860 1.240234 -35.898438 7.382812 12.227817 10.791015 5.869141 14.423830 1.650391 16.289064 0.671089 -114.833992 -70.664063 69.277344 -39.287113 -3.642578 -62.060547 5.625000 15.234375 1.037722 -17.275391 -12.412108 0.468750 90.488281 73.105469 58.603516 54.873051 2.724609 -25.420385 -7.539063 -39.345699 3.427734 -69.424675 28.726444 -0.324018 71.219963 1.184875 -3.976443 -0.742173 -18.438303 -7.534995 -53.058807 -38.305798 3.021131 85.638832 -2.304463 3.283400 -17.426596 34.251186 17.621437 
14.487782 33.421333 -0.817171 5.273438 2.099577 -39.912189 40.546875 -7.753261 -4.405420 -10.742188 -9.208985 -1.044922 -38.867188 5.927735 13.925781 7.441407 7.802735 15.597029 -2.578125 17.119141 0.722656 -113.564445 -62.441406 70.753052 -38.916016 -3.476563 -61.601566 9.160156 18.349609 2.343750 -16.523436 -10.859376 0.411996 79.482422 59.169922 45.029297 60.986328 2.968750 -31.143082 -9.873047 -38.593750 4.921875 -74.852089 29.843279 -2.079077 75.629898 1.252194 -3.589405 -1.864112 -18.521210 -7.769155 -56.936409 -36.744362 4.707618 88.066887 -3.007265 3.225264 -17.352030 29.897778 16.299829 
14.865163 33.057785 -0.531608 6.503907 2.636719 -42.186829 44.267578 -8.662109 -6.612799 -10.751954 -10.791016 -2.626953 -40.634762 6.347655 14.776472 5.322266 8.681641 16.446785 -4.765625 18.007813 0.800781 -112.265625 -55.517582 69.394531 -42.285156 -3.564453 -60.673828 14.062501 19.882813 4.300196 -15.107421 -8.027344 0.362700 75.234375 45.917969 37.321468 66.777344 2.509766 -17.441832 -1.162109 -34.121094 -0.532822 -77.457191 31.063046 -3.093791 78.067787 1.427108 -4.086084 -2.807506 -17.097233 -8.291712 -59.593597 -34.099075 6.940296 89.672157 -2.656055 3.261488 -17.297422 24.649075 14.606359 
15.246841 32.921799 -0.255460 5.976563 2.460938 -43.427734 49.511719 -8.300781 -8.154297 -10.410157 -13.251953 -4.033203 -41.162109 6.718750 15.097657 4.091796 9.375000 16.953125 -4.775391 18.710939 0.859375 -111.757813 -51.220703 72.099617 -46.337887 -3.554688 -60.224003 16.054688 18.574219 4.628906 -13.271484 -5.751953 0.244141 72.568359 35.488285 32.349419 74.726563 2.177734 -12.402715 -3.115234 -34.111328 0.639056 -77.061134 30.527748 -3.982292 79.488434 1.586869 -3.834263 -3.730312 -15.746924 -8.473544 -59.579617 -33.759701 7.260658 90.189949 -2.655981 3.266588 -17.958271 22.520296 14.333700 
15.507182 32.787094 -0.266850 5.449219 2.636719 -44.823544 53.730469 -8.515625 -8.740234 -10.761719 -14.482422 -4.211426 -40.449219 6.240234 15.664063 2.861328 9.199220 17.109377 -4.296875 19.931873 0.943944 -111.611328 -48.447266 73.125000 -50.595703 -3.632813 -60.770870 15.263671 17.685545 4.082031 -11.718750 -5.507813 0.097656 71.806648 27.480469 29.692003 83.476563 2.373047 -15.098060 -13.808594 -38.212891 7.327944 -76.718170 29.830353 -5.016719 80.164246 1.598113 -4.044226 -3.850470 -13.037611 -8.277026 -60.406754 -33.904865 7.789739 90.014221 -2.656073 3.261527 -18.412045 22.717314 14.341717 
15.645489 32.704697 -0.538466 4.570313 2.636719 -46.230019 56.201172 -8.593750 -8.398646 -11.289063 -14.833984 -3.693906 -39.736328 5.927735 16.220703 2.509765 8.496094 17.626953 -4.638672 21.337889 1.002306 -111.376953 -47.099609 70.129562 -54.716797 -3.613281 -61.405636 12.353515 21.992188 4.101563 -11.171875 -6.054688 0.215874 71.503906 22.724607 27.734375 88.642578 2.294922 -12.265625 -15.253906 -39.179691 8.480157 -75.778847 29.276623 -6.276235 80.006699 1.417475 -3.991472 -3.460058 -11.300519 -7.907298 -61.565548 -33.708286 7.880259 89.999405 -3.027360 3.277626 -18.197252 24.211899 14.802977 
15.613876 32.667152 -1.088437 3.505859 2.978516 -47.636208 56.552734 -8.554688 -7.851563 -11.464843 -14.306641 -3.166476 -39.375004 5.292969 17.167967 2.509766 7.968750 18.330078 -5.312500 20.996094 1.070720 -108.730469 -46.699219 64.609375 -58.525391 -3.505860 -62.285156 11.689452 24.335936 4.228516 -11.855470 -6.435547 0.244141 71.035156 23.066406 27.148439 90.195313 2.304688 -12.451172 -13.554688 -37.548828 7.089844 -74.348831 28.923847 -6.912382 78.783447 1.349067 -3.840453 -1.891390 -9.939218 -7.720212 -62.962711 -33.532898 8.388333 90.365303 -2.665798 3.271592 -18.758392 25.343224 15.384550 
15.396420 32.621479 -1.972089 2.460938 3.339844 -48.856850 54.619141 -8.281250 -6.700625 -10.937500 -13.779295 -2.626954 -39.726563 5.371094 18.213804 3.388672 7.441406 19.228516 -4.599609 19.238281 0.839844 -105.107422 -47.333984 59.677734 -62.451172 -3.466797 -62.236328 12.832031 22.636717 4.306641 -13.076173 -6.826172 0.195313 71.328125 27.509766 29.101561 90.322266 2.099609 -11.044921 -12.441406 -37.539063 6.425781 -73.179794 29.305634 -7.938982 77.021561 1.261971 -3.997006 -1.000627 -8.374755 -7.584503 -64.551315 -33.014141 7.676701 91.767433 -2.832096 3.501464 -19.889677 25.279793 16.170168 
14.979875 32.644024 -3.194996 1.406250 3.691406 -50.087261 50.927734 -8.095703 -4.483799 -10.058594 -13.603517 -1.210937 -38.847656 5.380859 18.388670 4.804688 6.220703 19.424885 -2.958985 17.988279 0.869141 -103.056641 -47.744141 56.340431 -65.019531 -3.554688 -58.779297 12.646483 20.068357 3.789063 -13.710938 -8.486328 0.265113 72.656250 32.812504 32.363281 89.023438 1.943359 -8.046876 -11.728516 -38.173828 6.083984 -70.693329 29.990318 -8.612864 73.525635 1.093180 -3.818600 1.017462 -7.083837 -6.909981 -65.450737 -31.784006 6.162950 93.164726 -2.831494 3.509235 -21.320198 24.620008 16.369347 
